<svg id="Camada_1" data-name="Camada 1" xmlns="http://www.w3.org/2000/svg" viewBox="0 0 156.66 44.09"><defs><style>.cls-1{font-size:13px;font-family:Montserrat-SemiBold, Montserrat;font-weight:600;}.cls-2{letter-spacing:-0.01em;}.cls-3{letter-spacing:0em;}.cls-4{letter-spacing:0em;}</style></defs><path d="M38.16,4V36.5H5.66V4h32.5m0-2H5.66a2,2,0,0,0-2,2V36.5a2,2,0,0,0,2,2h32.5a2,2,0,0,0,2-2V4a2,2,0,0,0-2-2Z" transform="translate(-3.66 -2)"/><path d="M45.39,11.6V44.09H12.89V11.6h32.5m0-2H12.89a2,2,0,0,0-2,2V44.09a2,2,0,0,0,2,2h32.5a2,2,0,0,0,2-2V11.6a2,2,0,0,0-2-2Z" transform="translate(-3.66 -2)"/><text class="cls-1" transform="translate(45.08 21.8)">ES<tspan class="cls-2" x="16.89" y="0">C</tspan><tspan class="cls-3" x="26.14" y="0">O</tspan><tspan class="cls-4" x="37.09" y="0">L</tspan><tspan x="44.89" y="0">A </tspan><tspan x="0" y="18">FRANCIS DRAKE</tspan></text></svg>